<svg xmlns="http://www.w3.org/2000/svg" width="1570.074" height="928" viewBox="0 0 1570.074 928">
  <g id="그룹_42" data-name="그룹 42" transform="translate(-175.213 -254.5)">
    <g id="그룹_38" data-name="그룹 38">
      <rect id="사각형_35" data-name="사각형 35" width="301.574" height="927" transform="translate(175.213 255)" fill="#014da1"/>
      <g id="그룹_35" data-name="그룹 35">
        <path id="패스_76" data-name="패스 76" d="M373.19,733.224v14.868h3.575v-5.549h3.174v-3.037h-3.1v-6.281Z" fill="#fff"/>
        <path id="패스_77" data-name="패스 77" d="M368.262,755.384" fill="#fff"/>
        <path id="패스_78" data-name="패스 78" d="M359.685,761.471V749.3h17.154v12.166Zm13.645-2.965v-6.232H363.188v6.232Z" fill="#fff"/>
        <path id="패스_79" data-name="패스 79" d="M368.262,755.384" fill="#fff"/>
        <path id="패스_80" data-name="패스 80" d="M401.546,733.224v14.868H397.97v-6.83H393.31v-3.037H397.9v-5Z" fill="#fff"/>
        <path id="패스_81" data-name="패스 81" d="M392.634,755.183" fill="#fff"/>
        <path id="패스_82" data-name="패스 82" d="M392.634,762.446c-5.324,0-9.643-3.25-9.643-7.263s4.319-7.263,9.643-7.263,9.649,3.257,9.649,7.263S397.964,762.446,392.634,762.446Zm6-7.263c0-2.238-2.686-4.055-6-4.055s-6,1.817-6,4.055,2.692,4.055,6,4.055S398.634,757.427,398.634,755.183Z" fill="#fff"/>
        <path id="패스_83" data-name="패스 83" d="M392.634,755.183" fill="#fff"/>
        <path id="패스_84" data-name="패스 84" d="M364.583,733.761s-.481,8.037,6.031,11.379l-1.87,2.585s-4.77-3.152-5.848-6.6c-1.084,3.446-5.848,6.6-5.848,6.6l-1.876-2.585c6.512-3.342,6.037-11.379,6.037-11.379Z" fill="#fff"/>
        <path id="패스_85" data-name="패스 85" d="M387.146,741.127c-1.079,3.446-5.452,6.33-5.452,6.33l-1.87-2.586c6.115-3.073,5.634-11.11,5.634-11.11h3.375s-.475,8.037,5.634,11.11l-1.87,2.586S388.23,744.573,387.146,741.127Z" fill="#fff"/>
        <rect id="사각형_36" data-name="사각형 36" width="13.809" height="3.012" transform="translate(429.609 733.883)" fill="#fff"/>
        <rect id="사각형_37" data-name="사각형 37" width="3.509" height="29.271" transform="translate(445.989 732.614)" fill="#fff"/>
        <rect id="사각형_38" data-name="사각형 38" width="5.166" height="3.012" transform="translate(447.846 743.256)" fill="#fff"/>
        <rect id="사각형_39" data-name="사각형 39" width="3.514" height="19.465" transform="translate(422.835 732.705)" fill="#fff"/>
        <rect id="사각형_40" data-name="사각형 40" width="6.853" height="3.012" transform="translate(418.285 739.322)" fill="#fff"/>
        <rect id="사각형_41" data-name="사각형 41" width="14.285" height="3.019" transform="translate(405.608 733.864)" fill="#fff"/>
        <rect id="사각형_42" data-name="사각형 42" width="3.509" height="12.3" transform="translate(408.746 749.134)" fill="#fff"/>
        <path id="패스_86" data-name="패스 86" d="M414.74,735.005l-.018.335c.066,2.7-.975,7.275,6.286,10.812l-1.828,2.5s-5.232-2.8-6.481-6.348c-1.248,3.543-6.481,6.348-6.481,6.348l-1.822-2.5c7.255-3.537,6.208-8.111,6.28-10.812a2.666,2.666,0,0,0-.024-.335Z" fill="#fff"/>
        <path id="패스_87" data-name="패스 87" d="M438.124,736.407v2.214c.171,6.494.39,11.2,6.043,16.221l-2.308,2.549s-4.764-4.428-5.477-8.4c-.712,3.969-5.469,8.4-5.469,8.4l-2.315-2.549c5.652-5.019,5.878-9.727,6.042-16.221v-2.214Z" fill="#fff"/>
        <rect id="사각형_43" data-name="사각형 43" width="15.838" height="3.012" transform="translate(410.604 758.422)" fill="#fff"/>
      </g>
      <g id="그룹_37" data-name="그룹 37">
        <g id="그룹_36" data-name="그룹 36">
          <path id="패스_88" data-name="패스 88" d="M368.938,671.922c-38.211-3.8-94.033,4.424-132.933,20.152l-2.326,1a11.659,11.659,0,0,1,1.2-.005c6.474.18,6.079,4.21,6.079,4.21l.012,2.464h-5.159v-1.674c0-1.183-1.444-1.265-1.444-1.265a1.331,1.331,0,0,0-1.359.753,1.867,1.867,0,0,0,.433,2.131,17.981,17.981,0,0,0,3.216,1.841,17.776,17.776,0,0,1,2.266,1.2,5.162,5.162,0,0,1,2.394,4.586v1.976c-.317,4.9-7.066,4.759-7.066,4.759-7.066,0-6.913-4.641-6.913-4.641v-2.423h5.5v1.668a1.436,1.436,0,0,0,1.37,1.487,1.526,1.526,0,0,0,1.627-1.393c.207-1.415-1.346-2.3-1.346-2.3-1.541-.79-4.106-2.174-4.106-2.174a6.789,6.789,0,0,1-1.779-1.583,5.083,5.083,0,0,1-.846-2.921v-1.543c0-2.134.572-2.747.572-2.747.006-.015.019-.027.025-.04-38.066,17.817-33.723,36.337,1.748,39.776,38.766,3.756,97.316-3.708,136.654-21.316-.121.009-.231.03-.365.03,0,0-6.652.537-6.816-4.835V698.7s-.828-5.726,6.633-5.726c0,0,4.856-.162,6.14,2.723,0,0,.634.774.463,3.966h-5.171v-1.637a1.313,1.313,0,0,0-1.353-1.32s-1.4.058-1.4,1.165v10.748a1.411,1.411,0,1,0,2.815-.1V705.4H366.3v-2.893h6.645v6.1a4.274,4.274,0,0,1-.554,2.037,9.467,9.467,0,0,1-.633.853l2.162-1.085C408.764,692.54,404.4,675.45,368.938,671.922ZM256.326,713.35l-2.01-15.218h-.451l-2.01,15.218h-5.494l3.393-19.624h8.674l3.393,19.624Zm27.765.021-.122-14.785h-.353l-2.674,14.782h-5.373l-2.7-14.788h-.4l-.06,14.791h-5.1l.427-19.629h8.619L278,704.483h.409l1.723-10.741h8.535l.554,19.629Zm24.847-6.058v1.976c-.317,4.9-7.066,4.759-7.066,4.759-7.066,0-6.914-4.641-6.914-4.641v-2.423h5.5v1.668a1.436,1.436,0,0,0,1.371,1.487,1.528,1.528,0,0,0,1.632-1.393c.2-1.415-1.352-2.3-1.352-2.3-1.542-.79-4.106-2.174-4.106-2.174a6.789,6.789,0,0,1-1.779-1.583,5.083,5.083,0,0,1-.846-2.921v-1.543c0-2.134.572-2.747.572-2.747,1.462-2.744,6.555-2.411,6.555-2.411,6.469.18,6.079,4.21,6.079,4.21l.006,2.464h-5.16v-1.674c0-1.183-1.437-1.265-1.437-1.265a1.333,1.333,0,0,0-1.365.753,1.867,1.867,0,0,0,.433,2.131,17.784,17.784,0,0,0,3.222,1.841,18.319,18.319,0,0,1,2.266,1.2A5.166,5.166,0,0,1,308.938,707.313Zm20.2,1.323c0,5.4-6.822,5.315-6.822,5.315-7.858,0-7.28-5.571-7.28-5.571V693.659h5.605l.018,14.84a1.479,1.479,0,0,0,1.577,1.579c1.5,0,1.426-1.619,1.426-1.619v-14.8h5.476Zm23.562,4.738h-6.091l-5.434-12h-.231l.3,12h-5.111V693.747h6.28l5.251,11.9h.225l-.371-11.907H352.7Z" fill="#fff"/>
        </g>
      </g>
    </g>
    <g id="그룹_41" data-name="그룹 41">
      <rect id="사각형_44" data-name="사각형 44" width="301.574" height="927" transform="translate(1443.213 255)" fill="#e6e6e6" stroke="#e6e6e6" stroke-width="1"/>
      <g id="그룹_40" data-name="그룹 40">
        <g id="그룹_39" data-name="그룹 39">
          <path id="패스_89" data-name="패스 89" d="M1635.873,698.6c-.193-21.12,17.252-31.261,18.016-31.733-9.8-14.352-25.084-16.35-30.5-16.586-13.009-1.311-25.394,7.67-31.969,7.67-6.595,0-16.779-7.455-27.543-7.241-14.2.194-27.241,8.25-34.546,20.905-14.716,25.545-3.781,63.4,10.592,84.111,7,10.141,15.35,21.528,26.318,21.12,10.591-.409,14.588-6.832,27.371-6.832,12.761,0,16.371,6.832,27.564,6.66,11.365-.237,18.584-10.377,25.523-20.518a92.562,92.562,0,0,0,11.57-23.762C1658.023,732.311,1636.088,723.889,1635.873,698.6Z" fill="#afb1af"/>
          <path id="패스_90" data-name="패스 90" d="M1614.84,636.576c5.844-7.047,9.775-16.865,8.691-26.641-8.39.322-18.563,5.608-24.568,12.633-5.414,6.273-10.162,16.285-8.873,25.846C1599.436,649.123,1609.029,643.644,1614.84,636.576Z" fill="#afb1af"/>
        </g>
      </g>
    </g>
  </g>
</svg>
